<svg height="512pt" viewBox="-1 0 512 512" width="512pt" xmlns="http://www.w3.org/2000/svg"><path d="m501.328125 2.382812-119.089844 34.035157-127.414062-36.417969-127.410157 36.417969c-102.378906-29.261719-77.871093-22.261719-119.089843-34.035157-4.167969-1.195312-8.324219 1.941407-8.324219 6.277344v494.671875c0 4.34375 4.15625 7.472657 8.332031 6.273438 41.796875-12.011719 16.914063-4.859375 119.082031-34.210938l127.410157 36.605469 127.414062-36.605469 119.078125 34.210938c4.175782 1.199219 8.332032-1.929688 8.332032-6.273438v-494.671875c0-4.335937-4.15625-7.472656-8.320313-6.277344zm0 0" fill="#def4f8"/><path d="m127.414062 36.417969v438.976562l-87.164062 25.039063-31.917969 9.171875c-4.175781 1.199219-8.332031-1.929688-8.332031-6.273438v-494.671875c0-4.335937 4.15625-7.472656 8.324219-6.277344l31.925781 9.121094zm0 0" fill="#a6e0ec"/><path d="m127.414062 36.417969v438.976562l-87.164062 25.039063v-488.929688zm0 0" fill="#c2eaf2"/><path d="m254.824219 0v512l-127.410157-36.605469v-438.976562zm0 0" fill="#def4f8"/><path d="m382.238281 36.417969v438.976562l-127.414062 36.605469v-512zm0 0" fill="#c2eaf2"/><path d="m509.648438 8.660156v494.671875c0 4.34375-4.15625 7.472657-8.332032 6.273438l-119.078125-34.210938v-438.976562l119.089844-34.035157c4.164063-1.195312 8.320313 1.941407 8.320313 6.277344zm0 0" fill="#def4f8"/><path d="m382.238281 36.417969v124.433593l-22.546875-11.660156c-10.316406-5.332031-16.925781-15.828125-17.292968-27.4375l-.632813-20.171875c-.503906-16.121093-12.90625-29.34375-28.964844-30.875-9.914062-.929687-19.011719-6.5-24.328125-15.261719l-33.648437-55.445312zm0 0" fill="#6dc54a"/><path d="m127.414062 426.738281v48.65625l-87.164062 25.039063-31.917969 9.171875c-4.175781 1.199219-8.332031-1.929688-8.332031-6.273438v-311.582031l.839844.492188 36.25 37.886718c5.761718 5.886719 9.402344 13.507813 10.378906 21.683594l7.726562 64.921875c.828126 6.949219 3.589844 13.519531 7.976563 18.976563 36.328125 45.195312 35.679687 43.765624 38.265625 49.464843 11.761719 25.863281 13.746094 34.105469 25.976562 41.5625zm0 0" fill="#5ca33b"/><path d="m509.648438 8.660156v422.632813c-1.867188-1.34375-2.9375-2.121094-2.9375-2.121094l-31.476563-39.566406c-6.742187-8.492188-6.1875-12.527344-12.59375-53.359375-1.375-8.867188-2.914063-9.625-29.523437-50.429688-4.121094-6.296875-2.265626-1.484375-25.839844-99.546875-3.867188-16.085937-16.074219-20.777343-25.039063-25.417969v-124.433593l119.089844-34.035157c4.164063-1.195312 8.320313 1.941407 8.320313 6.277344zm0 0" fill="#5ca33b"/><path d="m254.824219 446.007812v65.992188l-127.410157-36.605469v-48.65625c8.289063 5.046875 18.492188 6.832031 28.480469 4.332031l16.5-4.125c12.742188-3.171874 26.191407.5625 35.453125 9.824219 7.820313 7.820313 18.714844 11.777344 29.734375 10.777344zm0 0" fill="#6dc54a"/><path d="m396.390625 436.640625c-13.683594 13.683594-36.074219 13.683594-49.753906 0l-95.652344-95.648437c-13.683594-13.683594-13.683594-36.074219 0-49.757813s36.074219-13.683594 49.753906 0l95.652344 95.648437c13.683594 13.683594 13.683594 36.074219 0 49.757813zm0 0" fill="#44bfd7"/><path d="m350.992188 254.214844c0 68.460937-55.496094 123.960937-123.960938 123.960937-68.460938 0-123.957031-55.5-123.957031-123.960937 0-68.460938 55.496093-123.960938 123.957031-123.960938 68.464844 0 123.960938 55.5 123.960938 123.960938zm0 0" fill="#269ab1"/><path d="m308.917969 254.214844c0 39.585937-28.085938 72.605468-65.425781 80.222656-1.503907.304688-3.023438.578125-4.554688.800781-3.886719.566407-7.863281.859375-11.902344.859375-45.226562 0-81.886718-36.660156-81.886718-81.882812 0-45.226563 36.660156-81.886719 81.886718-81.886719 4.039063 0 8.015625.296875 11.902344.863281 1.53125.21875 3.050781.492188 4.554688.796875 37.339843 7.621094 65.425781 40.636719 65.425781 80.226563zm0 0" fill="#44bfd7"/><path d="m308.917969 254.214844c0 39.585937-28.085938 72.605468-65.425781 80.222656-37.355469-7.605469-65.460938-40.636719-65.460938-80.222656 0-39.589844 28.105469-72.617188 65.460938-80.226563 37.339843 7.621094 65.425781 40.636719 65.425781 80.226563zm0 0" fill="#7cd2e3"/></svg>