<svg id="Layer_1" data-name="Layer 1" xmlns="http://www.w3.org/2000/svg" viewBox="0 0 330.5 264.5"><defs><style>.cls-1{fill:#f7f7f7;}.cls-2{fill:#00bcd4;}.cls-3{fill:#fd6687;}.cls-4{fill:#8a8daa;}</style></defs><title>logo</title><ellipse class="cls-1" cx="165" cy="259" rx="82.5" ry="5.5"/><path class="cls-2" d="M595.62,420.72l-5.81,5.78L580.54,435c-2.8,2.52-6.82,5.52-10.17,8.37l-12.74,9.15-54.29,36-42.84,26L468.56,466l9.84-64.15,1.89-15.5c.24-4.37.78-9.34.9-13.07l.31-12.46-.09-9.83h.09a95,95,0,0,0-21.21-60.07l.06,0A92.94,92.94,0,0,1,532.5,256.5c51.64,0,93.5,42.31,93.5,94.5A94.73,94.73,0,0,1,595.62,420.72Zm-33-69.72c0-16.84-13.28-30.5-29.66-30.5s-29.66,13.66-29.66,30.5,13.28,30.5,29.66,30.5S562.66,367.84,562.66,351Z" transform="translate(-295.5 -256.5)"/><path class="cls-3" d="M452,466l8.49,48.49-43-26-54-36-12.67-9.15c-3.33-2.85-7.33-5.85-10.11-8.37l-9.22-8.48-7-7,0,0a95,95,0,0,1-29-68.53c0-52.19,41.64-94.5,93-94.5a92.24,92.24,0,0,1,71.76,34.39l.06,0A94.71,94.71,0,0,0,439,351h.09l-.09,9.83.32,12.46c.12,3.73.65,8.7.89,13.07l1.91,15.5ZM417.5,351c0-16.84-13.21-30.5-29.5-30.5s-29.5,13.66-29.5,30.5,13.21,30.5,29.5,30.5S417.5,367.84,417.5,351Z" transform="translate(-295.5 -256.5)"/><path class="cls-4" d="M481.41,351l.09,9.83-.31,12.46c-.12,3.73-.66,8.7-.9,13.07l-1.89,15.5L468.56,466,460.5,514.5,452,466l-9.89-64.15-1.91-15.5c-.24-4.37-.77-9.34-.89-13.07L439,360.83l.09-9.83H439A94.67,94.67,0,0,1,460.31,291,95,95,0,0,1,481.5,351Z" transform="translate(-295.5 -256.5)"/></svg>