<?xml version="1.0" encoding="iso-8859-1"?>
<!-- Generator: Adobe Illustrator 21.0.0, SVG Export Plug-In . SVG Version: 6.00 Build 0)  -->
<svg xmlns="http://www.w3.org/2000/svg" xmlns:xlink="http://www.w3.org/1999/xlink" version="1.1" id="Capa_1" x="0px" y="0px" viewBox="0 0 511.598 511.598" style="enable-background:new 0 0 511.598 511.598;" xml:space="preserve" width="512" height="512">
<g>
	<path style="fill:#8CC7EC;" d="M131.649,371.848C59.058,371.848,0,430.906,0,503.497v0.296c0,4.142,3.357,7.5,7.5,7.5h248.299   c4.143,0,7.5-3.358,7.5-7.5v-0.296C263.299,430.906,204.241,371.848,131.649,371.848z"/>
	<path style="fill:#66BAEA;" d="M131.649,371.848c-5.91,0-11.727,0.398-17.433,1.156c64.381,8.556,114.217,63.811,114.217,130.493   v0.296c0,4.142-3.357,7.5-7.5,7.5h34.866c4.143,0,7.5-3.358,7.5-7.5v-0.296C263.299,430.906,204.241,371.848,131.649,371.848z"/>
	<path style="fill:#E09C77;" d="M164.782,376.058c-21.546-5.587-44.723-5.587-66.267,0c-3.649,0.946-6.029,4.455-5.559,8.196   c2.445,19.442,19.08,34.103,38.692,34.103s36.247-14.661,38.692-34.103C170.813,380.513,168.433,377.004,164.782,376.058z"/>
	<path style="fill:#6E563D;" d="M244.296,195.721c-10.871-17.969-28.934-29.52-50.861-32.524   c-15.594-2.137-28.348,2.025-35.499,5.29c-10.43-12.417-22.301-19.081-46.92-19.081c-28.276,0-68.356,14.67-89.538,46.878   c-24.63,37.451-14.051,81.813-0.839,112.433c1.224,2.835,6.891,4.531,6.891,4.531l205.697-0.799c0,0,8.194-0.611,9.601-4.507   C264.255,248.605,255.453,214.164,244.296,195.721z"/>
	<g>
		<path style="fill:#604B35;" d="M244.296,195.721c-10.871-17.969-28.934-29.52-50.861-32.524    c-9.957-1.364-18.746-0.158-25.668,1.741c17.93,4.587,32.656,15.292,42.028,30.784c11.157,18.443,19.959,52.884-1.469,112.221    c-1.406,3.896-9.601,4.507-9.601,4.507h34.502c0,0,8.194-0.611,9.601-4.507C264.255,248.605,255.453,214.164,244.296,195.721z"/>
	</g>
	<path style="fill:#E09C77;" d="M221.887,292.222c-2.84,0-5.657,0.443-8.372,1.316c-2.927,0.941-4.982,3.572-5.188,6.639   c-0.686,10.25-3.358,20.08-7.944,29.218c-1.38,2.749-0.941,6.061,1.105,8.356c5.194,5.825,12.63,9.165,20.398,9.165   c15.079,0,27.347-12.268,27.347-27.347S236.966,292.222,221.887,292.222z"/>
	<path style="fill:#F7B081;" d="M62.916,329.396c-4.587-9.141-7.26-18.971-7.944-29.218c-0.205-3.067-2.261-5.699-5.188-6.64   c-2.715-0.874-5.532-1.316-8.372-1.316c-15.079,0-27.347,12.268-27.347,27.347s12.268,27.347,27.347,27.347   c7.768,0,15.203-3.34,20.397-9.164C63.857,335.457,64.296,332.145,62.916,329.396z"/>
	<path style="fill:#A58260;" d="M497.886,230.58c-9.194-23.984-25.227-44.355-46.363-58.91c-21.15-14.566-45.9-22.264-71.574-22.264   s-50.424,7.699-71.574,22.264c-21.137,14.555-37.169,34.926-46.363,58.91c-13.801,36.002-13.848,115.74,5.771,157.477   c7.24,15.402,16.7,25.168,28.117,29.026c3.92,1.328,162.566,0.397,165.695,0.397c0.796,0,1.606-0.128,2.402-0.397   c11.417-3.858,20.877-13.624,28.117-29.026C511.733,346.32,511.686,266.582,497.886,230.58z"/>
	<path style="fill:#8C6B50;" d="M497.886,230.58c-9.194-23.984-25.227-44.355-46.363-58.91c-21.15-14.566-45.9-22.264-71.574-22.264   c-5.871,0-11.69,0.422-17.433,1.218c19.369,2.682,37.828,9.812,54.141,21.046c21.137,14.555,37.169,34.926,46.363,58.91   c13.801,36.002,13.848,115.74-5.771,157.477c-7.24,15.402-16.7,25.168-28.117,29.026c-0.796,0.269-1.606,0.397-2.402,0.397   c-1.585,0-43.08,0.239-84.152,0.302c48.303,0.097,116.97-0.302,119.018-0.302c0.796,0,1.606-0.128,2.402-0.397   c11.417-3.858,20.877-13.624,28.117-29.026C511.733,346.32,511.686,266.582,497.886,230.58z"/>
	<path style="fill:#FD7DAD;" d="M379.948,371.848c-72.592,0-131.649,59.058-131.649,131.649v0.296c0,4.142,3.357,7.5,7.5,7.5   h248.299c4.143,0,7.5-3.358,7.5-7.5v-0.296C511.598,430.906,452.54,371.848,379.948,371.848z"/>
	<path style="fill:#FC63A1;" d="M379.948,371.848c-5.91,0-11.727,0.398-17.433,1.156c64.381,8.556,114.216,63.811,114.216,130.493   v0.296c0,4.142-3.357,7.5-7.5,7.5h34.866c4.143,0,7.5-3.358,7.5-7.5v-0.296C511.598,430.906,452.54,371.848,379.948,371.848z"/>
	<path style="fill:#FF3D43;" d="M342.035,45.294C337.847,14.676,316.276,2.079,297.486,0.5c-16.742-1.411-32.381,4.88-41.688,15.786   C246.492,5.379,230.848-0.91,214.111,0.5c-18.79,1.579-40.36,14.176-44.549,44.794c-8.607,62.916,79.214,106.384,82.957,108.204   c1.035,0.503,2.157,0.755,3.279,0.755s2.244-0.251,3.279-0.755C262.821,151.678,350.642,108.209,342.035,45.294z"/>
	<g>
		<path style="fill:#D72E2E;" d="M342.035,45.294C337.847,14.676,316.276,2.079,297.486,0.5c-7.84-0.661-15.428,0.386-22.247,2.786    c14.78,5.318,28.524,18.223,31.778,42.008c6.584,48.129-43.259,84.877-68.727,100.306c7.825,4.741,13.35,7.47,14.23,7.898    c1.035,0.503,2.157,0.755,3.279,0.755s2.244-0.251,3.279-0.755C262.821,151.678,350.642,108.209,342.035,45.294z"/>
	</g>
	<path style="fill:#FFC89F;" d="M217.294,272.41c-37.126-6.383-62.82-44.061-63.07-44.433c-1.541-2.308-4.221-3.598-6.982-3.318   c-2.761,0.28-5.132,2.038-6.18,4.608c-0.045,0.107-4.703,10.855-18.377,21.434c-18.264,14.131-44.34,21.6-75.409,21.6   c-4.143,0-7.5,3.358-7.5,7.5v15.173c0,50.66,41.215,91.874,91.874,91.874s91.874-41.214,91.874-91.874v-15.173   C223.523,276.149,220.893,273.028,217.294,272.41z"/>
	<path style="fill:#F7B081;" d="M217.294,272.41c-10.585-1.82-20.235-6.187-28.636-11.504v34.069   c0,44.697-32.085,82.038-74.431,90.21c5.643,1.088,11.466,1.664,17.423,1.664c50.659,0,91.874-41.214,91.874-91.874v-15.173   C223.523,276.149,220.893,273.028,217.294,272.41z"/>
	<path style="fill:#E09C77;" d="M413.081,376.058c-21.546-5.587-44.723-5.587-66.267,0c-3.649,0.946-6.029,4.455-5.559,8.196   c2.445,19.442,19.08,34.103,38.692,34.103c19.612,0,36.247-14.661,38.692-34.103C419.111,380.513,416.731,377.004,413.081,376.058z   "/>
	<path style="fill:#FFC89F;" d="M465.593,272.41c-37.126-6.383-62.82-44.061-63.07-44.433c-1.541-2.308-4.226-3.598-6.982-3.318   c-2.761,0.28-5.132,2.038-6.18,4.608c-0.045,0.107-4.703,10.855-18.377,21.434c-18.264,14.131-44.341,21.6-75.41,21.6   c-4.143,0-7.5,3.358-7.5,7.5v15.173c0,50.66,41.215,91.874,91.875,91.874c50.659,0,91.874-41.214,91.874-91.874v-15.173   C471.822,276.149,469.192,273.028,465.593,272.41z"/>
	<path style="fill:#F7B081;" d="M465.593,272.41c-10.584-1.82-20.234-6.186-28.636-11.504v34.068   c0,44.697-32.085,82.038-74.431,90.21c5.643,1.088,11.467,1.664,17.423,1.664c50.659,0,91.874-41.214,91.874-91.874v-15.173   C471.822,276.149,469.192,273.028,465.593,272.41z"/>
	<g>
		<path style="fill:#464649;" d="M345.082,322.214c-6.705,0-12.159-5.455-12.159-12.16c0-6.705,5.454-12.16,12.159-12.16    s12.16,5.455,12.16,12.16C357.242,316.76,351.787,322.214,345.082,322.214z"/>
		<path style="fill:#464649;" d="M414.814,322.214c-6.705,0-12.16-5.455-12.16-12.16c0-6.705,5.455-12.16,12.16-12.16    c6.705,0,12.159,5.455,12.159,12.16C426.974,316.76,421.52,322.214,414.814,322.214z"/>
	</g>
	<g>
		<path style="fill:#464649;" d="M96.783,322.214c-6.705,0-12.159-5.455-12.159-12.16c0-6.705,5.454-12.16,12.159-12.16    c6.705,0,12.16,5.455,12.16,12.16C108.943,316.76,103.488,322.214,96.783,322.214z"/>
		<path style="fill:#464649;" d="M166.516,322.214c-6.705,0-12.16-5.455-12.16-12.16c0-6.705,5.455-12.16,12.16-12.16    c6.705,0,12.159,5.455,12.159,12.16C178.675,316.76,173.221,322.214,166.516,322.214z"/>
	</g>
</g>















</svg>
