<svg version="1" xmlns="http://www.w3.org/2000/svg" width="853.333" height="853.333" viewBox="0 0 640.000000 640.000000"><path d="M309.8 128.5c-.2.2-2.2.6-4.6 1-2.3.3-7.7 1.7-11.8 3.1-4.2 1.3-8.3 2.6-9.2 2.7-1 .2-7.1 2-13.7 4.1-28 8.8-37.1 11.6-39 12-1.1.3-3.9 1.1-6.3 2-2.3.8-4.4 1.6-4.7 1.6-.5.1-.7.1-7 2.1-2.2.7-4.4 1.4-5 1.5-.5.1-4.8 1.4-9.5 2.9s-8.9 2.8-9.5 2.9c-.5.1-5.7 1.7-11.5 3.6-5.8 1.9-11 3.5-11.6 3.6-1.7.3-21.6 6.4-24.4 7.5-1.4.5-3.4 1.1-4.5 1.4-1.1.2-5.6 1.6-10 3-4.4 1.5-8.8 2.8-9.7 3.1-1 .2-2.6.6-3.5.8-1 .3-4.5 1.3-7.8 2.4-3.3 1.1-9.4 3-13.5 4.2-4.1 1.2-8.2 2.4-9 2.7-.8.3-1.9.7-2.5.9-.5.1-4.8 1.4-9.5 2.9s-8.9 2.8-9.5 2.9c-1.4.3-18.9 5.7-36.3 11.3-11.8 3.8-14.9 5.2-18 8.2-6.5 6.2-7.7 8.8-7.6 16.6 0 13.8 5.3 19.3 24.3 25.4C48 272.3 63.4 277 64.7 277c.7 0 1.3.4 1.3 1 0 .5-.4 1-1 1-.5 0-1 .5-1 1.1 0 .6-1.1 2.5-2.4 4.2-3.3 4.5-6.5 11-9.3 19.2-1.3 3.8-2.3 7.2-2.3 7.5 0 .3-.2 1.8-.5 3.5-.3 1.6-.7 4.4-.9 6.1-.2 2.3-2 4.8-6.3 9-7.4 7.3-10.2 13.9-9.8 22.9.2 3.3.6 7.1.9 8.3.8 3.7 5.1 10.4 8.9 13.9 3.2 3 3.4 3.5 2.7 7-.4 2.1-1 4.5-1.3 5.3-.3.8-.8 3.1-1.1 5-.3 1.9-2.2 10.5-4.1 19-4.7 20.6-6.6 29-7.1 31.9-.3 1.2-1.2 5.3-2 9-.9 3.6-1.8 7.7-2 9.1-.3 1.4-.9 4.1-1.4 6-.5 1.9-1.2 4.7-1.5 6.2-.3 1.6-.7 3.8-1 5-.2 1.3-1.3 6.2-2.3 11-1.1 4.9-1.5 8.8-1 8.8s.7.3.4.8c-.9 1.5 2.3 7 5.8 9.7 2.9 2.2 4.8 2.8 10.8 3.1 4 .3 7.9.7 8.5.9.7.3 1.3 0 1.3-.6s.4-.8.9-.5c1 .6 7.8.8 17.4.4 3.7-.2 6.7-.1 6.7.2 0 .3 2.4.4 5.2.3 2.9-.1 5.3-.2 5.3-.3 0 0 3.4-.2 7.6-.3 6.6-.2 8-.6 11.2-3 6.5-4.9 7.9-11.8 4.9-23.2-.6-2.2-1.4-5.2-1.7-6.8-1.1-5.6-1.6-8.1-3.1-14.6-.9-3.6-1.8-7.7-2-9.1-.3-1.4-.9-4.1-1.4-6-.5-1.9-1.1-4.6-1.4-6-.2-1.4-1.1-5.5-2-9.1-.8-3.7-1.7-7.8-2-9-.2-1.3-1.1-5.4-2-9-.8-3.7-1.8-7.9-2.1-9.3-.8-4-1.3-6.5-3.1-14.1-3.5-15.7-3.7-13.8 1.6-19.3 6.4-6.6 8.9-13.4 8.5-22.7-.4-8.6-3.5-15.2-10.1-21.1-4.6-4.2-5-5.5-4.1-10.9 1.6-9.4 5.9-16.9 13.9-24.8 4.8-4.8 6.2-5.6 7.4-4.7.8.7 1.4 1 1.4.7 0-.4 1.9.1 4.3.9 2.3.9 5.1 1.7 6.1 1.9 1 .3 3.5 1 5.5 1.7s3.8 1.3 4.1 1.3c1.3.3 12.7 3.7 14 4.2.8.3 1.7.7 2 .8 2.1.6 9.7 2.9 10.5 3.1 1.3.3 25.7 7.8 36 11.1 4.4 1.3 10 3.1 12.5 3.8 2.5.7 12.6 3.8 22.5 7 9.9 3.1 18.8 5.8 19.8 6 1.6.4 6.5 1.9 10.7 3.3.8.3 2 .6 2.7.8.6.1 4.7 1.3 9 2.7 15.8 5 31 9.7 36.8 11.2 7.7 2.1 27 2.7 34.1 1 5.2-1.2 6.1-1.4 6.7-1.6.1 0 .9-.2 1.7-.4 2.4-.5 22.3-6.5 24-7.2.8-.3 2-.7 2.5-.8 1.2-.3 20.4-6.2 31.8-9.8 4.3-1.4 7.9-2.5 8-2.4.1 0 3.1-.9 6.7-2.1 3.6-1.1 11.2-3.5 17-5.2 5.8-1.7 11.6-3.5 13-4 1.4-.4 5.9-1.8 10-3 4.1-1.3 9.3-2.9 11.5-3.7 2.2-.8 4.8-1.7 5.7-1.8 1-.2 7.7-2.2 15-4.5 7.3-2.2 17.8-5.5 23.3-7.1 5.5-1.7 11.1-3.4 12.5-3.9 2.8-1 17.2-5.4 18-5.5.9-.1 15.4-4.6 17-5.2.8-.3 2-.7 2.7-.9.7-.1 4.5-1.2 8.5-2.5s7.5-2.4 7.8-2.4c.8-.1 20.6-6.3 35.7-11.1 10.9-3.5 15.1-5.4 18.2-8.1 2.3-1.9 4.1-4.1 4.1-4.8 0-.7.4-1.5.9-1.7.6-.2 1.6-2.4 2.2-5 2.7-9.9-2.8-22-11.8-26.4-3.6-1.7-45.2-15-50.2-16-1.4-.3-2.9-.8-3.5-1.2-.6-.3-1.8-.8-2.6-.9-.8-.1-4.2-1.2-7.5-2.3-3.3-1.1-6.9-2.3-8-2.5-1.1-.3-10.1-3-20-6-9.9-3.1-18.7-5.8-19.5-6-.8-.2-2.7-.8-4.2-1.4-1.6-.6-2.8-.8-2.8-.5 0 .2-.9 0-2.1-.6-1.1-.6-2.8-1.3-3.7-1.5-.9-.2-8.9-2.6-17.7-5.3-8.8-2.7-20-6.2-25-7.7-4.9-1.4-9.7-2.9-10.5-3.2-.8-.4-4.2-1.4-7.5-2.4-3.3-.9-12.1-3.6-19.5-5.9-7.4-2.3-16.2-5-19.5-6-14.6-4.5-46.4-14.3-51-15.8-2.7-.8-5.4-1.6-6-1.8-.5-.1-3-.7-5.5-1.5-2.5-.7-5.2-1.4-6-1.6-1.8-.5-24.8-1.2-25.2-.8z"/><path d="M141.9 336.7c0 1-.2 2.7-.4 3.8-.4 1.9-1 6.9-2 15.5-.4 3.7-1.2 10.1-2 16-.3 1.9-.7 5.4-1 7.7-.3 2.4-.7 6.2-1 8.5-.3 2.4-.8 6.1-1.1 8.3-.9 7.5-1.4 11-1.9 15.5-.3 2.5-.7 6.1-1 8-.3 1.9-.7 5.5-1 8-.3 2.5-.9 6.5-1.2 9-.4 2.5-.7 7.7-.6 11.6 0 6.5.3 7.6 3.6 12.6 8.5 12.8 24.9 22.8 52.2 32 6.6 2.2 12.7 4.1 13.5 4.3.8.2 6.2 1.4 12 2.8s11.9 2.7 13.5 2.8c1.7.2 3.6.7 4.3 1.2.6.5 1.2.7 1.2.5 0-.3 2.4-.1 5.3.4 13.8 2.2 24.9 3.6 44.7 5.3 3.6.4 13.7.8 22.5 1.1 8.8.3 16.5.5 17 .5 3.1.1 38.6-1.2 42-1.5 2.2-.2 7.6-.7 12-1.1 4.4-.3 9.1-.8 10.5-1 1.4-.2 4.3-.6 6.5-.9 2.2-.3 6-.8 8.5-1.1 2.5-.3 5.2-.8 6-1 .8-.2 3.3-.7 5.5-1 4.5-.6 6-.9 12.5-2.4 2.5-.5 5.6-1.2 7-1.5 2.5-.5 3.2-.7 10.5-2.6 2.2-.6 4.8-1.2 5.7-1.5 4.6-1.1 24-8.1 30.6-11.2 15.9-7.2 28.9-17.7 33.5-26.8 2.1-4.3 2.4-6.1 2.2-12.7-.2-4.3-.6-9-.9-10.5-.5-2.8-1.2-7.3-2.1-15.1-.3-2.3-.7-6.1-1-8.5-1.3-9.8-1.6-12.4-2-15.7-.2-1.9-.7-5.3-1-7.5-.3-2.2-.7-6.3-1-9-.3-2.8-.7-5.9-.9-7-.2-1.1-.7-4.7-1.1-8-.3-3.3-.9-7.6-1.1-9.5-.5-3.7-1-8.1-1.9-15.2-.3-2.3-.7-4.4-1-4.6-.2-.3-3.1.3-6.2 1.4-3.2 1-6 1.9-6.3 1.9-1 .2-18.8 5.6-28.5 8.7-5.5 1.8-10.2 3.3-10.5 3.3-1.8.3-13.2 3.9-16.5 5.1-2.2.9-4.1 1.5-4.3 1.5-.1-.1-3.5.9-7.5 2.1-3.9 1.2-7.4 2.3-7.7 2.3-.9.2-18.4 5.6-21 6.5-3.9 1.4-16.9 5.1-17.7 5.2-.5 0-1.5.4-2.4.9-.9.4-2.7 1-4 1.3-1.3.2-5 1.4-8.1 2.5-3.2 1.1-5.8 1.8-5.8 1.5 0-.3-.8 0-1.7.5-1 .5-3.4 1.2-5.3 1.5-1.9.3-5.3.9-7.5 1.3-5.4.9-26.8 1-33 .1-6.4-1-14.4-3-27-7-5.5-1.8-10.2-3.3-10.5-3.3-2.9-.7-9.8-2.7-11-3.2-.8-.4-1.7-.7-2-.8-.3-.1-3.8-1.1-7.9-2.4-4.1-1.2-8.2-2.4-9.2-2.6-1-.2-2.6-.8-3.6-1.3-1-.6-2.2-1-2.8-1.1-1-.1-10.2-2.7-14.5-4.1-5.5-1.9-26.6-8.4-27.7-8.6-1.3-.2-10.9-3.2-13.3-4.1-1.8-.7-2.9-1-5.5-1.7-2.5-.5-18.4-5.5-20.5-6.3-3.8-1.5-6-1.4-6.1.4z"/></svg>